<svg width="263" height="70" viewBox="0 0 263 70" version="1.1" xmlns="http://www.w3.org/2000/svg" xmlns:xlink="http://www.w3.org/1999/xlink" xmlns:figma="http://www.figma.com/figma/ns">
<title>Logo</title>
<desc>Created using Figma</desc>
<g id="Canvas" transform="translate(-589 -42)" figma:type="canvas">
<g id="Logo" figma:type="frame">
<g id="part-3" figma:type="frame">
<g id="Vector" figma:type="vector">
<use xlink:href="#path0_fill" transform="translate(836.566 94.1031)" fill="#FFFFFF"/>
</g>
<g id="Vector" figma:type="vector">
<use xlink:href="#path1_fill" transform="translate(787.284 92.7771)" fill="#FFFFFF"/>
</g>
<g id="Vector" figma:type="vector">
<use xlink:href="#path2_fill" transform="translate(732.599 94.0167)" fill="#FFFFFF"/>
</g>
<g id="Vector" figma:type="vector">
<use xlink:href="#path3_fill" transform="translate(753.169 93.8435)" fill="#FFFFFF"/>
</g>
<g id="Vector" figma:type="vector">
<use xlink:href="#path4_fill" transform="translate(809.608 94.1597)" fill="#FFFFFF"/>
</g>
<g id="Vector" figma:type="vector">
<use xlink:href="#path5_fill" transform="translate(824.017 94.1121)" fill="#FFFFFF"/>
</g>
<g id="Vector" figma:type="vector">
<use xlink:href="#path6_fill" transform="translate(771.962 93.8192)" fill="#FFFFFF"/>
</g>
<g id="Vector" figma:type="vector">
<use xlink:href="#path7_fill" transform="translate(717.283 94.1121)" fill="#FFFFFF"/>
</g>
</g>
<g id="part-2" figma:type="frame">
<g id="Vector" figma:type="vector">
<use xlink:href="#path8_fill" transform="translate(641.61 42)" fill="#FFFFFF"/>
</g>
<g id="Vector" figma:type="vector">
<use xlink:href="#path9_fill" transform="translate(656.831 102.503)" fill="#FFFFFF"/>
</g>
<g id="Vector" figma:type="vector">
<use xlink:href="#path10_fill" transform="translate(663.511 90.87)" fill="#FFFFFF"/>
</g>
<g id="Vector" figma:type="vector">
<use xlink:href="#path11_fill" transform="translate(670.143 79.1889)" fill="#FFFFFF"/>
</g>
</g>
<g id="part-1" figma:type="frame">
<g id="Vector" figma:type="vector">
<use xlink:href="#path12_fill" transform="translate(638.795 82.3356)" fill="#C2D1BC"/>
</g>
<g id="Vector" figma:type="vector">
<use xlink:href="#path13_fill" transform="translate(626.354 42.3113)" fill="#C2D1BC"/>
</g>
<g id="Vector" figma:type="vector">
<use xlink:href="#path14_fill" transform="translate(589 42.2038)" fill="#C2D1BC"/>
</g>
</g>
</g>
</g>
<defs>
<path id="path0_fill" d="M 14.8388 15.9811C 13.7891 15.9811 12.7394 15.9334 11.7374 15.9334C 11.4034 15.9334 11.2603 15.838 11.1649 15.5043C 10.7832 14.2647 10.4014 13.025 10.0197 11.7854C 9.92431 11.4993 9.82889 11.4517 9.54261 11.4517C 8.11122 11.4517 6.72755 11.4517 5.29616 11.4517C 5.00988 11.4517 4.86674 11.547 4.81903 11.8331C 4.48504 13.025 4.0556 14.2647 3.72161 15.4566C 3.62618 15.838 3.43533 15.9334 3.10134 15.9334C 2.09937 15.8857 1.09739 15.9334 -5.82435e-06 15.9334C 0.143133 15.5043 0.286284 15.1229 0.429423 14.7414C 2.09938 9.97364 3.81704 5.20584 5.487 0.43804C 5.58242 0.104294 5.72556 -0.0387369 6.10726 0.00894108C 7.01381 0.0566191 7.92036 0.0566191 8.82691 0.00894108C 9.20862 0.00894108 9.35177 0.104297 9.49491 0.485721C 11.2126 5.44423 12.978 10.4027 14.7433 15.3136C 14.7911 15.4566 14.8865 15.5997 14.9342 15.7427C 14.8388 15.7904 14.8388 15.8857 14.8388 15.9811ZM 9.11321 9.06776C 8.54065 6.87457 7.96809 4.72906 7.44325 2.77426C 6.91841 4.77674 6.34585 6.92225 5.77329 9.06776C 6.87069 9.06776 8.01581 9.06776 9.11321 9.06776Z"/>
<path id="path1_fill" d="M 8.24852 18.6421C 8.24852 18.213 8.24852 17.7839 8.24852 17.2594C 7.67596 17.2594 7.10341 17.3071 6.57857 17.2594C 5.81516 17.2118 5.09947 17.1641 4.33606 17.021C 2.42754 16.6396 1.18699 15.4953 0.614435 13.6836C -0.196687 10.8229 -0.196675 7.96223 0.566734 5.10154C 1.187 2.95603 2.66611 1.81177 4.86091 1.57338C 5.95831 1.47802 7.00799 1.43034 8.1531 1.33499C 8.1531 0.953562 8.1531 0.47678 8.1531 6.77545e-15C 9.29822 6.77545e-15 10.3479 6.77545e-15 11.4453 6.77545e-15C 11.4453 0.429102 11.4453 0.905884 11.4453 1.33499C 12.3518 1.38266 13.2107 1.38266 14.0218 1.47802C 15.1669 1.57337 16.312 1.76408 17.314 2.47925C 18.4591 3.33746 19.0317 4.57709 19.318 5.95975C 19.7951 8.39133 19.8428 10.8229 19.2225 13.2545C 18.6023 15.7337 17.0754 16.9734 14.4989 17.2118C 13.497 17.3071 12.5427 17.3548 11.493 17.4025C 11.493 17.8316 11.493 18.2607 11.493 18.7375C 10.4433 18.6421 9.34592 18.6421 8.24852 18.6421ZM 8.20082 14.5895C 8.20082 11.0613 8.20082 7.5808 8.20082 4.10031C 7.58055 4.10031 6.96027 4.10031 6.38772 4.10031C 5.05175 4.14799 4.19292 4.81548 3.81121 6.05511C 3.19095 8.20061 3.23866 10.3461 3.7635 12.5393C 4.00206 13.3975 4.43149 14.1127 5.33804 14.3988C 6.2923 14.6848 7.24656 14.5895 8.20082 14.5895ZM 11.5407 14.5418C 12.1133 14.5418 12.6858 14.5418 13.2584 14.5418C 14.7852 14.4464 15.5009 13.922 15.978 12.444C 16.4552 10.8706 16.4075 9.24953 16.2643 7.67616C 16.2166 7.00867 16.0258 6.2935 15.7872 5.62601C 15.4532 4.7678 14.8329 4.19566 13.8787 4.10031C 13.2584 4.00495 12.6381 4.00495 12.0656 3.95728C 11.6839 3.9096 11.5407 4.05263 11.5407 4.48173C 11.5407 7.67616 11.5407 10.8706 11.5407 14.065C 11.5407 14.2557 11.5407 14.3988 11.5407 14.5418Z"/>
<path id="path2_fill" d="M 13.9322 6.48421C 13.4551 7.72384 12.978 8.96347 12.5485 10.2031C 11.8806 12.0149 11.1649 13.8266 10.4969 15.6384C 10.4014 15.9245 10.2583 16.0675 9.92432 16.0198C 9.06549 15.9721 8.15894 15.9721 7.3001 16.0198C 6.96611 16.0198 6.82297 15.8768 6.72754 15.5907C 5.63014 12.6347 4.48503 9.67863 3.38763 6.7226C 3.33991 6.62724 3.2922 6.48421 3.19678 6.38885C 3.19678 9.58328 3.19678 12.7777 3.19678 15.9721C 2.09938 15.9721 1.0974 15.9721 -2.91217e-06 15.9721C -2.91217e-06 10.6799 -2.91217e-06 5.38762 -2.91217e-06 0.0953575C 0.0954232 0.0953575 0.190852 0.0476766 0.286278 0.0476766C 1.28825 0.0476766 2.29022 0.0476766 3.33991 0.0476766C 3.48305 0.0476766 3.72161 0.190711 3.76933 0.286067C 5.05758 3.28978 6.34584 6.34118 7.53867 9.39257C 8.0158 10.5845 8.20665 11.9195 8.49293 13.1591C 8.54064 13.2545 8.58835 13.3975 8.63606 13.5882C 8.92234 12.3963 9.1132 11.2997 9.44719 10.2508C 9.97203 8.72508 10.5923 7.19938 11.2126 5.67368C 11.9283 3.9096 12.644 2.19319 13.3597 0.429102C 13.5028 0.095356 13.6459 -7.27509e-07 13.9799 -7.27509e-07C 15.0296 0.0476773 16.0793 -7.27509e-07 17.1767 -7.27509e-07C 17.1767 5.29226 17.1767 10.5845 17.1767 15.9245C 16.127 15.9245 15.125 15.9245 14.0276 15.9245C 14.0276 12.73 14.0276 9.58328 14.0276 6.43653C 14.0276 6.48421 13.9799 6.48421 13.9322 6.48421Z"/>
<path id="path3_fill" d="M 16.1212 8.23082C 16.0258 9.70884 15.9304 11.1869 15.4055 12.5695C 14.6421 14.5243 13.2584 15.8116 11.1591 16.1931C 9.01198 16.5745 6.81717 16.6222 4.67009 16.1454C 2.37986 15.6209 1.0439 14.0475 0.471345 11.8544C -0.148924 9.51813 -0.148927 7.18191 0.423629 4.84569C 1.0439 2.17572 2.71386 0.506985 5.52893 0.173239C 7.34203 -0.0651511 9.15512 -0.0651518 10.9682 0.220916C 13.6401 0.697696 15.1192 2.36643 15.6918 4.89336C 15.9304 5.94228 15.9781 7.08655 16.1212 8.23082ZM 8.01 13.8568L 8.01 13.8092C 8.3917 13.8092 8.77342 13.8092 9.15512 13.8092C 10.8728 13.7615 11.7793 13.094 12.2565 11.4253C 12.7336 9.89955 12.7336 8.32618 12.5427 6.75281C 12.4473 5.94228 12.2565 5.13175 11.9702 4.36891C 11.5885 3.41535 10.8251 2.84321 9.8231 2.74785C 8.82113 2.6525 7.81915 2.6525 6.86489 2.70018C 5.14722 2.74785 4.19296 3.46302 3.71583 5.13175C 3.33412 6.46674 3.33413 7.89708 3.38184 9.27974C 3.42956 10.3287 3.57269 11.3776 4.04982 12.3311C 4.47924 13.1417 5.14723 13.6661 6.05378 13.7615C 6.72176 13.7615 7.38973 13.8092 8.01 13.8568Z"/>
<path id="path4_fill" d="M 11.8805 7.27509e-07C 11.7851 0.905883 11.7374 1.76409 11.642 2.62229C 8.87463 2.62229 6.10727 2.62229 3.2922 2.62229C 3.2922 3.86192 3.2922 5.05387 3.2922 6.2935C 5.43929 6.2935 7.58636 6.2935 9.78116 6.2935C 9.78116 7.19938 9.78116 8.05758 9.78116 8.96346C 7.63408 8.96346 5.487 8.96346 3.2922 8.96346C 3.2922 10.3938 3.2922 11.7765 3.2922 13.1591C 6.15499 13.1591 8.97005 13.1591 11.8805 13.1591C 11.7851 14.065 11.7374 14.9709 11.642 15.8768C 7.72952 15.8768 3.91246 15.8768 -5.82434e-06 15.8768C -5.82434e-06 10.5845 -5.82434e-06 5.29226 -5.82434e-06 7.27509e-07C 3.96018 7.27509e-07 7.87265 7.27509e-07 11.8805 7.27509e-07Z"/>
<path id="path5_fill" d="M 3.2922 10.2031C 3.2922 12.1102 3.2922 14.0173 3.2922 15.8768C 2.1948 15.8768 1.0974 15.8768 0 15.8768C 0 10.5845 0 5.29226 0 0.0476787C 0.047713 0.0476787 0.0954202 1.45502e-06 0.143133 1.45502e-06C 2.67192 1.45502e-06 5.15301 7.28219e-07 7.6818 0.0476787C 8.34978 0.0476787 8.97006 0.143035 9.63804 0.238391C 11.2126 0.476782 12.1668 1.43034 12.4531 3.00371C 12.6917 4.38638 12.7394 5.81672 12.4531 7.19938C 12.1191 8.86811 11.2126 9.82167 9.4949 9.9647C 7.87266 10.1077 6.25041 10.1077 4.58045 10.2031C 4.19875 10.2031 3.76933 10.2031 3.2922 10.2031ZM 3.2922 7.43777C 4.86673 7.43777 6.39355 7.48545 7.92037 7.43777C 8.63606 7.39009 9.06548 6.96099 9.16091 6.24582C 9.20862 5.48297 9.20862 4.7678 9.16091 4.00495C 9.11319 3.28978 8.68377 2.813 8.0635 2.813C 6.48897 2.71764 4.91444 2.71765 3.33991 2.66997C 3.33991 2.86068 3.2922 2.95604 3.2922 3.00371C 3.2922 4.48173 3.2922 5.95975 3.2922 7.43777Z"/>
<path id="path6_fill" d="M 13.5982 1.00802C 13.3119 1.86622 13.0734 2.67674 12.7871 3.53495C 11.976 3.34424 11.2603 3.10585 10.4969 2.91514C 9.11319 2.58139 7.6818 2.58139 6.25041 2.7721C 5.1053 2.96281 4.34189 3.63031 3.91247 4.67922C 3.43534 5.82349 3.33991 7.01545 3.33991 8.2074C 3.33991 9.35167 3.38762 10.4959 3.76932 11.5925C 4.24646 12.9752 5.24843 13.6427 6.67982 13.7857C 8.73148 14.0241 10.6877 13.6427 12.5962 13.0229C 12.7394 12.9752 12.8348 12.9275 13.0257 12.8798C 13.2642 13.6904 13.5505 14.4532 13.7891 15.2161C 13.8368 15.3114 13.6459 15.5498 13.5505 15.5975C 12.6917 15.8836 11.7851 16.1696 10.9263 16.3127C 8.87462 16.6941 6.82296 16.6464 4.7713 16.265C 2.5765 15.8359 1.14512 14.4532 0.572559 12.3554C -0.190849 9.68542 -0.190849 6.96777 0.572559 4.2978C 1.19283 2.05693 2.67192 0.67427 4.96215 0.292846C 7.53866 -0.136256 10.0674 -0.136257 12.5962 0.578913C 12.8825 0.674269 13.1211 0.769625 13.3596 0.864981C 13.4074 0.864981 13.4551 0.91266 13.5982 1.00802Z"/>
<path id="path7_fill" d="M 13.4074 0.0476787C 13.3119 0.858205 13.2642 1.66873 13.1688 2.43158C 13.1688 2.52693 12.9302 2.66997 12.7871 2.66997C 11.4511 2.66997 10.1152 2.66997 8.77921 2.66997C 8.63607 2.66997 8.44521 2.66997 8.20665 2.66997C 8.20665 7.10402 8.20665 11.4904 8.20665 15.8768C 7.10925 15.8768 6.01185 15.8768 4.91445 15.8768C 4.91445 11.4904 4.91445 7.10402 4.91445 2.66997C 3.2922 2.66997 1.66995 2.66997 -5.82435e-06 2.66997C 0.0954203 1.76409 0.143133 0.905884 0.238559 1.45502e-06C 4.67587 0.0476795 9.01777 0.0476787 13.4074 0.0476787Z"/>
<path id="path8_fill" d="M 38.6953 0C 38.743 0.143034 38.7907 0.286068 38.8861 0.429102C 48.0947 16.6396 57.3511 32.8502 66.5597 49.0607C 70.0427 55.1635 77.152 67.7028 77.152 67.7028L 72.1421 67.7028C 72.1421 67.7028 53.7726 35.3771 44.5163 19.1189C 42.6077 15.7814 40.7469 12.444 38.8384 9.15418C 38.7907 9.05882 38.6953 8.91579 38.5999 8.77275C 38.5044 8.91579 38.4567 9.01114 38.3613 9.1065C 29.0572 25.4601 19.7532 41.8136 10.4014 58.1672C 8.63606 61.2186 4.96216 67.7028 4.96216 67.7028L -1.45609e-06 67.7028C -1.45609e-06 67.7028 25.4788 22.8378 38.1227 0.667492C 38.2659 0.429102 38.3613 0.23839 38.5044 2.75253e-15C 38.5999 0 38.6476 0 38.6953 0Z"/>
<path id="path9_fill" d="M 2.91217e-06 4.24334C 2.91217e-06 2.813 2.91217e-06 1.43034 2.91217e-06 7.27508e-07C 15.5545 7.27508e-07 31.1089 7.27508e-07 46.7111 7.27508e-07C 46.7111 1.38266 46.7111 2.813 46.7111 4.24334C 31.1566 4.24334 15.6022 4.24334 2.91217e-06 4.24334Z"/>
<path id="path10_fill" d="M 2.91217e-06 4.24335C 2.91217e-06 2.813 2.91217e-06 1.43034 2.91217e-06 0C 11.1649 0 22.282 0 33.4468 0C 33.4468 1.43034 33.4468 2.813 33.4468 4.24335C 22.282 4.24335 11.1649 4.24335 2.91217e-06 4.24335Z"/>
<path id="path11_fill" d="M 0 0C 6.72754 0 13.4074 0 20.1349 0C 20.1349 1.43034 20.1349 2.813 20.1349 4.24334C 13.4074 4.24334 6.72754 4.24334 0 4.24334C 0 2.813 0 1.43034 0 0Z"/>
<path id="path12_fill" d="M 1.45609e-06 11.252C 6.10727 2.90836 13.5028 -0.190711 21.5663 0.143035C 33.2083 0.572137 45.5182 5.53065 57.1125 5.29226C 64.3172 5.1969 71.2356 3.76656 77.152 -7.27509e-07C 71.7604 7.5808 65.176 11.0136 57.9714 11.109C 46.4248 11.395 34.1148 6.38885 22.4251 5.95975C 14.3616 5.626 6.67983 6.77028 1.45609e-06 11.252Z"/>
<path id="path13_fill" d="M 0.464826 2.31103C -0.489435 1.11908 0.130836 0.308557 1.37137 0.260879C 8.14663 -0.168223 14.397 -0.501969 20.552 2.97853C 25.705 5.88689 28.1861 11.4175 27.6136 17.0912C 26.4684 25.5779 16.4964 32.4912 10.3891 35.9717C 7.47864 37.6881 5.61784 40.8349 5.52241 44.22C 5.37927 49.8937 5.23613 58.142 5.33156 61.7178C 5.37927 63.9587 3.6616 66.2473 1.60994 67.2008C 0.941957 67.4869 0.226261 67.5822 0.464826 66.5333C 2.51649 55.6627 1.32366 3.40763 0.464826 2.31103ZM 6.14268 32.5389C 8.38519 33.5878 23.1285 24.8151 23.8919 16.0423C 24.2259 7.79401 13.2042 0.976049 5.76098 4.79029C 5.37927 4.981 5.04528 5.02868 5.04528 5.74385C 5.14071 9.84416 4.18644 31.633 6.14268 32.5389Z"/>
<path id="path14_fill" d="M 28.4675 40.6562C 28.8492 35.6023 26.3204 32.3126 22.1217 30.024C 19.5929 28.6414 17.1595 27.211 14.583 26.0191C 9.3823 23.5875 7.47378 19.2488 7.1875 13.8135C 6.90123 8.75962 8.2849 4.56396 12.6268 1.6556C 17.2072 -1.39579 25.1753 -0.0608065 28.6107 4.27789C 30.1852 6.28037 29.2786 9.80854 26.9884 10.7621C 26.1773 11.0958 26.1773 10.5714 25.9387 9.99925C 24.2688 5.85127 20.9289 3.94415 16.7301 4.80235C 13.4856 5.46984 11.5294 8.90266 11.5294 13.0983C 11.5771 19.0581 15.1556 22.0618 20.07 24.255C 22.8851 25.5423 25.7479 26.8296 28.3721 28.4506C 32.0937 30.7869 33.4774 34.6011 33.9068 38.7491C 34.6702 45.9961 31.1872 51.2884 25.7479 55.4841C 20.1655 59.7274 14.2013 63.5417 8.18948 67.1652C 7.1875 67.785 6.28096 68.5002 5.37441 69.2153C 4.13387 70.1689 3.46589 69.8828 2.70248 68.8339C 2.4162 68.4525 1.98678 68.1664 1.79593 67.785C 1.03252 66.2593 -0.589723 64.7336 0.221399 63.0649C 0.937094 61.6822 2.84562 62.6358 4.22929 62.5404C 9.0006 62.2067 13.0085 60.0612 16.7778 57.4389C 21.072 54.4828 25.0799 51.0977 27.4178 46.1869C 28.3244 44.3751 28.2767 42.5157 28.4675 40.6562Z"/>
</defs>
</svg>
