<svg width="486" height="80" viewBox="0 0 486 80" version="1.1" xmlns="http://www.w3.org/2000/svg" xmlns:xlink="http://www.w3.org/1999/xlink">
<title>logo</title>
<desc>Created using Figma</desc>
<g id="Canvas" transform="translate(-617 -314)">
<g id="logo">
<g id="Group">
<g id="Group">
<g id="Vector">
<use xlink:href="#path0_fill" transform="translate(890.8 314)" fill="#FFFFFF"/>
</g>
<g id="Group">
<g id="Vector">
<use xlink:href="#path1_fill" transform="translate(910.305 329.238)" fill="#FFFFFF"/>
</g>
<g id="Vector">
<use xlink:href="#path2_fill" transform="translate(932.995 329.238)" fill="#FFFFFF"/>
</g>
<g id="Vector">
<use xlink:href="#path3_fill" transform="translate(955.687 329.238)" fill="#FFFFFF"/>
</g>
<g id="Vector">
<use xlink:href="#path4_fill" transform="translate(980.067 329.238)" fill="#FFFFFF"/>
</g>
<g id="Vector">
<use xlink:href="#path5_fill" transform="translate(1005.57 329.238)" fill="#FFFFFF"/>
</g>
<g id="Vector">
<use xlink:href="#path6_fill" transform="translate(1030.89 329.238)" fill="#FFFFFF"/>
</g>
<g id="Vector">
<use xlink:href="#path7_fill" transform="translate(909.929 359.333)" fill="#FFFFFF"/>
</g>
<g id="Vector">
<use xlink:href="#path8_fill" transform="translate(932.058 359.143)" fill="#FFFFFF"/>
</g>
<g id="Vector">
<use xlink:href="#path9_fill" transform="translate(956.25 359.524)" fill="#FFFFFF"/>
</g>
<g id="Vector">
<use xlink:href="#path10_fill" transform="translate(983.63 359.524)" fill="#FFFFFF"/>
</g>
<g id="Vector">
<use xlink:href="#path11_fill" transform="translate(1007.63 359.714)" fill="#FFFFFF"/>
</g>
<g id="Vector">
<use xlink:href="#path12_fill" transform="translate(1032.39 359.524)" fill="#FFFFFF"/>
</g>
<g id="Vector">
<use xlink:href="#path13_fill" transform="translate(1056.96 359.524)" fill="#FFFFFF"/>
</g>
<g id="Vector">
<use xlink:href="#path14_fill" transform="translate(1081.15 353.81)" fill="#FFFFFF"/>
</g>
</g>
<g id="Group">
<g id="Group">
<g id="Vector">
<use xlink:href="#path15_fill" transform="translate(617 328.095)" fill="#FFFFFF"/>
</g>
<g id="Vector">
<use xlink:href="#path16_fill" transform="translate(659.57 328.476)" fill="#FFFFFF"/>
</g>
<g id="Vector">
<use xlink:href="#path17_fill" transform="translate(702.516 328.476)" fill="#FFFFFF"/>
</g>
<g id="Vector">
<use xlink:href="#path18_fill" transform="translate(747.149 328.667)" fill="#FFFFFF"/>
</g>
<g id="Vector">
<use xlink:href="#path19_fill" transform="translate(788.782 328.095)" fill="#FFFFFF"/>
</g>
<g id="Vector">
<use xlink:href="#path20_fill" transform="translate(834.352 328.476)" fill="#FFFFFF"/>
</g>
</g>
<g id="Group">
<g id="Vector">
<use xlink:href="#path21_fill" transform="translate(706.454 371.714)" fill="#FFFFFF"/>
</g>
<g id="Vector">
<use xlink:href="#path22_fill" transform="translate(718.269 371.905)" fill="#FFFFFF"/>
</g>
<g id="Vector">
<use xlink:href="#path23_fill" transform="translate(728.958 371.714)" fill="#FFFFFF"/>
</g>
<g id="Vector">
<use xlink:href="#path24_fill" transform="translate(740.773 371.714)" fill="#FFFFFF"/>
</g>
<g id="Vector">
<use xlink:href="#path25_fill" transform="translate(752.4 371.905)" fill="#FFFFFF"/>
</g>
<g id="Vector">
<use xlink:href="#path26_fill" transform="translate(763.277 371.333)" fill="#FFFFFF"/>
</g>
<g id="Vector">
<use xlink:href="#path27_fill" transform="translate(774.904 371.714)" fill="#FFFFFF"/>
</g>
<g id="Vector">
<use xlink:href="#path28_fill" transform="translate(786.719 371.333)" fill="#FFFFFF"/>
</g>
<g id="Vector">
<use xlink:href="#path29_fill" transform="translate(805.285 371.905)" fill="#FFFFFF"/>
</g>
<g id="Vector">
<use xlink:href="#path30_fill" transform="translate(822.913 369.81)" fill="#FFFFFF"/>
</g>
<g id="Vector">
<use xlink:href="#path31_fill" transform="translate(835.29 370)" fill="#FFFFFF"/>
</g>
<g id="Vector">
<use xlink:href="#path32_fill" transform="translate(848.23 370)" fill="#FFFFFF"/>
</g>
<g id="Vector">
<use xlink:href="#path33_fill" transform="translate(860.982 370)" fill="#FFFFFF"/>
</g>
</g>
</g>
</g>
</g>
</g>
</g>
<defs>
<path id="path0_fill" d="M 2.81302 0L 0 0L 0 80L 2.81302 80L 2.81302 0Z"/>
<path id="path1_fill" d="M 18.7534 5.52381L 15.7529 5.52381L 15.5654 3.04762L 5.25096 3.04762L 5.25096 16.5714L 7.31385 16.5714L 7.31385 19.8095L -1.14462e-05 19.8095L -1.14462e-05 16.5714L 2.06288 16.5714L 2.06288 3.23809L -1.14462e-05 3.23809L -1.14462e-05 0L 18.7534 0L 18.7534 5.52381Z"/>
<path id="path2_fill" d="M 7.31383 20L 0 20L 0 16.7619L 2.06289 16.7619L 2.06289 3.23809L 0 3.23809L 0 0L 12.5648 0C 13.5025 0 14.2526 0.190477 15.1903 0.571429C 15.9404 0.952381 16.6906 1.52381 17.4407 2.09524C 18.1909 2.85714 18.5659 3.61905 18.941 4.38095C 19.3161 5.33333 19.5036 6.09524 19.5036 7.04762C 19.5036 8 19.3161 8.95238 18.941 9.71429C 18.5659 10.6667 18.0033 11.4286 17.4407 12C 16.8781 12.5714 16.128 13.1429 15.1903 13.5238C 14.4402 13.9048 13.5025 14.0952 12.5648 14.0952L 5.25097 14.0952L 5.25097 16.5714L 7.31383 16.5714L 7.31383 20ZM 16.128 7.04762C 16.128 6.47619 15.9404 5.90476 15.7529 5.52381C 15.5654 4.95238 15.1903 4.57143 15.0028 4.19048C 14.6277 3.80952 14.2526 3.61905 13.69 3.42857C 13.1274 3.2381 12.7523 3.04762 12.1897 3.04762L 5.06343 3.04762L 5.06343 10.8571L 12.3773 10.8571C 12.9399 10.8571 13.3149 10.6667 13.8775 10.4762C 14.2526 10.2857 14.8152 9.90476 15.0028 9.71429C 15.3778 9.33333 15.5654 8.95238 15.7529 8.38095C 16.128 8.19048 16.128 7.61905 16.128 7.04762Z"/>
<path id="path3_fill" d="M 15.3778 3.23809L 13.5025 3.23809L 13.5025 0L 21.0039 0L 21.0039 3.23809L 18.941 3.23809L 14.2526 16.381C 13.8775 17.7143 13.1274 18.6667 12.1898 19.2381C 11.2521 19.8095 10.1269 20.1905 8.81413 20.1905C 7.87645 20.1905 7.12631 20 6.37617 19.619C 5.62603 19.2381 5.06342 18.6667 4.31328 18.0952L 6.37617 15.8095C 6.75124 16.1905 7.12632 16.381 7.50139 16.5714C 7.87646 16.7619 8.43906 16.9524 8.81413 16.9524C 9.00166 16.9524 9.18918 16.9524 9.56425 16.7619C 9.75179 16.7619 10.1269 16.5714 10.3144 16.381C 10.5019 16.1905 10.877 16 11.0645 15.8095C 11.2521 15.619 11.4396 15.4286 11.6271 15.0476L 11.8147 14.2857L 5.81356 14.2857L 2.06287 3.04762L 1.14462e-05 3.04762L 1.14462e-05 0L 4.12576 0L 7.87645 11.2381L 12.7523 11.2381L 15.3778 3.23809Z"/>
<path id="path4_fill" d="M 21.754 3.23809L 19.6911 3.23809L 19.6911 16.7619L 21.754 16.7619L 21.754 20L 14.2526 20L 14.2526 16.7619L 16.3155 16.7619L 16.3155 3.23809L 5.4385 3.23809L 5.4385 16.7619L 7.50139 16.7619L 7.50139 20L 1.14462e-05 20L 1.14462e-05 16.7619L 2.06287 16.7619L 2.06287 3.23809L 1.14462e-05 3.23809L 1.14462e-05 0L 21.3789 0L 21.3789 3.23809L 21.754 3.23809Z"/>
<path id="path5_fill" d="M 21.754 3.23809L 19.6911 3.23809L 19.6911 16.7619L 21.754 16.7619L 21.754 20L 14.2526 20L 14.2526 16.7619L 16.3155 16.7619L 16.3155 3.23809L 5.43851 3.23809L 5.43851 16.7619L 7.50137 16.7619L 7.50137 20L -5.7231e-06 20L -5.7231e-06 16.7619L 2.06288 16.7619L 2.06288 3.23809L -5.7231e-06 3.23809L -5.7231e-06 0L 21.3789 0L 21.3789 3.23809L 21.754 3.23809Z"/>
<path id="path6_fill" d="M 22.3166 20L 14.8152 20L 14.8152 16.7619L 16.6906 16.7619L 15.9404 14.2857L 6.18864 14.2857L 5.43851 16.7619L 7.31386 16.7619L 7.31386 20L -5.7231e-06 20L -5.7231e-06 16.7619L 2.06289 16.7619L 6.00109 3.23809L 4.31329 3.23809L 4.31329 0L 15.0028 0L 19.8787 16.9524L 21.9415 16.9524L 21.9415 20L 22.3166 20ZM 7.50137 11.0476L 15.1903 11.0476L 12.9399 3.23809L 9.75178 3.23809L 7.50137 11.0476Z"/>
<path id="path7_fill" d="M 5.43851 8L 8.43905 8C 8.81412 8 9.37671 7.80952 9.75178 7.61905C 10.1269 7.42857 10.5019 7.04762 10.6895 6.66667L 12.5648 2.85714C 12.9399 2.09524 13.5025 1.33333 14.2526 0.761906C 15.0028 0.190478 15.7529 -1.45322e-06 16.8781 -1.45322e-06C 17.6282 -1.45322e-06 18.1909 0.190477 18.941 0.571429C 19.6911 0.952382 20.2537 1.52381 20.6288 2.28571L 18.5659 4.38095C 18.0033 3.61905 17.4407 3.2381 16.8781 3.2381C 16.6906 3.2381 16.3155 3.2381 16.128 3.42857C 15.9404 3.61905 15.7529 3.80952 15.5654 4L 13.69 7.80952C 13.69 8 13.5025 8.19048 13.315 8.38095C 13.1274 8.57143 12.9399 8.7619 12.7523 8.95238C 12.5648 9.14286 12.3773 9.33333 12.1897 9.33333C 12.0022 9.52381 11.8147 9.52381 11.8147 9.52381C 12.0022 9.52381 12.0022 9.52381 12.1897 9.71428C 12.3773 9.90476 12.5648 9.90476 12.7523 10.0952C 12.9399 10.2857 13.1274 10.4762 13.1274 10.4762C 13.3149 10.6667 13.3149 10.8571 13.5025 10.8571L 15.3778 15.2381C 15.5654 15.8095 15.9404 16.1905 16.128 16.5714C 16.503 16.9524 16.8781 16.9524 17.4407 16.9524C 18.0033 16.9524 18.3784 16.9524 18.5659 16.7619C 18.7535 16.5714 19.1285 16.381 19.5036 16L 21.5665 18.2857C 21.1914 18.6667 21.0039 18.8571 20.6288 19.2381C 20.2537 19.4286 20.0662 19.8095 19.6911 19.8095C 19.316 20 18.941 20.1905 18.7534 20.1905C 18.3784 20.1905 18.0033 20.381 17.4407 20.381C 16.128 20.381 15.0028 20 14.2526 19.2381C 13.5025 18.4762 12.7523 17.5238 12.1897 16.381L 10.5019 12.7619C 10.3144 12.381 9.93933 12 9.56427 11.619C 9.1892 11.4286 8.6266 11.2381 8.25153 11.2381L 5.25097 11.2381L 5.25097 16.9524L 7.31386 16.9524L 7.31386 20.1905L -5.7231e-06 20.1905L -5.7231e-06 16.9524L 2.06289 16.9524L 2.06289 3.42857L -5.7231e-06 3.42857L -5.7231e-06 0.190475L 7.31386 0.190475L 7.31386 3.42857L 5.25097 3.42857L 5.25097 8L 5.43851 8Z"/>
<path id="path8_fill" d="M 0 10.4762C 0 8.95238 0.375069 7.42857 0.937672 6.09524C 1.50028 4.7619 2.43795 3.80952 3.37563 2.85714C 4.3133 1.90476 5.62603 1.33333 6.93877 0.761905C 8.25151 0.380953 9.56425 1.45322e-06 11.0645 1.45322e-06C 12.5648 1.45322e-06 13.8775 0.190477 15.3778 0.761905C 16.6906 1.14286 17.8158 1.90476 18.941 2.85714C 19.8787 3.80952 20.8163 4.7619 21.3789 6.09524C 21.9415 7.42857 22.3166 8.76191 22.3166 10.4762C 22.3166 12 21.9415 13.5238 21.3789 14.6667C 20.8163 16 20.0662 16.9524 18.941 17.9048C 18.0033 18.8571 16.8781 19.4286 15.3778 20C 14.0651 20.5714 12.5648 20.7619 11.0645 20.7619C 9.56425 20.7619 8.25151 20.5714 6.93877 20C 5.62603 19.4286 4.50083 18.8571 3.37563 17.9048C 2.43795 16.9524 1.50028 16 0.937672 14.6667C 0.187534 13.5238 0 12 0 10.4762ZM 10.877 3.42857C 9.7518 3.42857 8.81411 3.61905 7.87644 4C 6.93877 4.38095 6.18863 4.7619 5.43849 5.52381C 4.68835 6.09524 4.12576 6.85714 3.75069 7.80952C 3.37562 8.7619 3.18808 9.71428 3.18808 10.6667C 3.18808 11.619 3.37562 12.5714 3.75069 13.5238C 4.12576 14.4762 4.68835 15.0476 5.43849 15.8095C 6.18863 16.381 6.93877 16.9524 7.87644 17.3333C 8.81411 17.7143 9.7518 17.9048 10.877 17.9048C 12.0022 17.9048 13.1274 17.7143 14.0651 17.3333C 15.0028 16.9524 15.7529 16.5714 16.503 15.8095C 17.2532 15.2381 17.6283 14.4762 18.0033 13.5238C 18.3784 12.5714 18.5659 11.619 18.5659 10.6667C 18.5659 9.71428 18.3784 8.7619 18.0033 7.80952C 17.6283 6.85714 17.0656 6.28571 16.503 5.52381C 15.7529 4.95238 15.0028 4.38095 14.0651 4C 13.1274 3.61905 12.0022 3.42857 10.877 3.42857Z"/>
<path id="path9_fill" d="M 24.7546 3.2381L 22.6917 3.2381L 22.6917 16.7619L 24.7546 16.7619L 24.7546 20L 17.2532 20L 17.2532 16.7619L 19.316 16.7619L 19.316 3.2381L 18.1909 3.2381L 15.0027 14.4762L 9.56426 14.4762L 6.37618 3.2381L 5.25096 3.2381L 5.25096 16.7619L 7.31385 16.7619L 7.31385 20L -1.14462e-05 20L -1.14462e-05 16.7619L 2.06288 16.7619L 2.06288 3.2381L -1.14462e-05 3.2381L -1.14462e-05 -7.26609e-07L 8.81413 -7.26609e-07L 12.0022 11.2381L 12.7523 11.2381L 15.9404 -7.26609e-07L 24.7546 -7.26609e-07L 24.7546 3.2381Z"/>
<path id="path10_fill" d="M 21.754 3.2381L 19.6911 3.2381L 19.6911 16.7619L 21.754 16.7619L 21.754 20L 14.2526 20L 14.2526 16.7619L 16.3155 16.7619L 16.3155 3.2381L 5.43849 3.2381L 5.43849 16.7619L 7.50138 16.7619L 7.50138 20L 5.33005e-14 20L 5.33005e-14 16.7619L 2.06289 16.7619L 2.06289 3.2381L 5.33005e-14 3.2381L 5.33005e-14 -7.26609e-07L 21.3789 -7.26609e-07L 21.3789 3.2381L 21.754 3.2381Z"/>
<path id="path11_fill" d="M 22.3166 20L 14.8152 20L 14.8152 16.7619L 16.6906 16.7619L 15.9404 14.2857L 6.18865 14.2857L 5.43849 16.7619L 7.31384 16.7619L 7.31384 20L 5.7231e-06 20L 5.7231e-06 16.7619L 2.06287 16.7619L 6.0011 3.2381L 4.3133 3.2381L 4.3133 6.76707e-15L 15.0028 6.76707e-15L 19.8786 16.9524L 21.9415 16.9524L 21.9415 20L 22.3166 20ZM 7.50138 10.8571L 15.1903 10.8571L 12.9399 3.04762L 9.75179 3.04762L 7.50138 10.8571Z"/>
<path id="path12_fill" d="M 7.68893 3.2381L 5.62603 3.2381L 5.62603 7.80952L 16.503 7.80952L 16.503 3.2381L 14.4401 3.2381L 14.4401 -7.26609e-07L 21.9415 -7.26609e-07L 21.9415 3.2381L 19.6911 3.2381L 19.6911 16.7619L 21.754 16.7619L 21.754 20L 14.2526 20L 14.2526 16.7619L 16.3155 16.7619L 16.3155 11.0476L 5.43849 11.0476L 5.43849 16.7619L 7.50138 16.7619L 7.50138 20L 5.33005e-14 20L 5.33005e-14 16.7619L 2.06289 16.7619L 2.06289 3.2381L 5.33005e-14 3.2381L 5.33005e-14 -7.26609e-07L 7.31383 -7.26609e-07L 7.31383 3.2381L 7.68893 3.2381Z"/>
<path id="path13_fill" d="M 14.0651 16.9524L 16.128 16.9524L 16.128 3.42857L 15.3778 3.42857L 8.06397 20.381L 2.06287 20.381L 2.06287 3.42857L 1.14462e-05 3.42857L 1.14462e-05 0.190476L 7.50139 0.190476L 7.50139 3.42857L 5.4385 3.42857L 5.4385 16.9524L 6.18863 16.9524L 13.5025 -7.26609e-07L 21.5665 -7.26609e-07L 21.5665 3.2381L 19.5036 3.2381L 19.5036 16.7619L 21.5665 16.7619L 21.5665 20L 14.2526 20L 14.2526 16.9524L 14.0651 16.9524Z"/>
<path id="path14_fill" d="M 14.0651 22.6667L 16.128 22.6667L 16.128 9.14286L 15.3778 9.14286L 8.06399 26.0952L 2.06289 26.0952L 2.06289 9.14286L -5.33005e-14 9.14286L -5.33005e-14 5.90476L 7.50138 5.90476L 7.50138 9.14286L 5.43849 9.14286L 5.43849 22.6667L 6.18864 22.6667L 13.5025 5.71428L 21.5665 5.71428L 21.5665 8.95238L 19.5036 8.95238L 19.5036 22.4762L 21.5665 22.4762L 21.5665 25.7143L 14.0651 25.7143L 14.0651 22.6667ZM 10.877 3.80952C 9.93933 3.80952 9.00164 3.61905 8.25151 3.2381C 7.31383 2.85714 6.5637 2.28571 6.0011 1.71428L 7.50138 -7.26609e-07C 7.68891 0.190475 7.87644 0.380953 8.25151 0.380953C 8.62658 0.571429 8.81411 0.571427 9.18918 0.761903C 9.56425 0.952379 9.75178 0.95238 10.1269 0.95238C 10.5019 0.95238 10.6895 0.95238 11.0645 0.95238C 11.2521 0.95238 11.6271 0.95238 12.0022 0.95238C 12.3773 0.95238 12.5648 0.761903 12.9399 0.761903C 13.3149 0.571427 13.5025 0.571429 13.8775 0.380953C 14.2526 0.190477 14.4402 -7.26609e-07 14.6277 -7.26609e-07L 16.128 1.71428C 15.5654 2.47619 14.8152 2.85714 13.8775 3.2381C 12.5648 3.61905 11.8147 3.80952 10.877 3.80952Z"/>
<path id="path15_fill" d="M 15.9404 5.90476C 14.6277 5.90476 13.69 5.90476 12.7523 6.09524C 11.8147 6.09524 11.0645 6.28571 10.5019 6.47619C 9.75179 6.66667 9.18919 6.85714 8.62659 7.23809C 8.06398 7.42857 7.50138 7.80952 6.93878 8.19048L 6.75124 10.6667L 1.31274 10.6667L 1.31274 4.19048C 1.87534 3.80952 2.62548 3.42857 3.56315 2.85714C 4.31329 2.28571 5.4385 1.90476 6.56371 1.52381C 7.50138 0.952381 8.81412 0.761905 10.5019 0.380952C 12.0022 0.190476 13.8776 1.81652e-07 15.9404 1.81652e-07C 18.5659 1.81652e-07 21.0039 0.380953 23.4418 1.33333C 25.8798 2.09524 27.9426 3.42857 29.818 4.95238C 31.6933 6.47619 33.1936 8.38095 34.1313 10.6667C 35.2565 12.9524 35.8191 15.619 35.8191 18.4762C 35.8191 21.3333 35.2565 23.8095 34.1313 26.0952C 33.0061 28.381 31.5058 30.2857 29.818 32C 27.9426 33.5238 25.8798 34.8571 23.4418 35.619C 21.0039 36.5714 18.5659 36.9524 15.9404 36.9524C 12.7523 36.9524 9.75179 36.3809 6.93878 35.0476C 4.12576 33.9048 1.87534 32 0 29.9048L 4.31329 25.9048C 5.4385 27.619 7.12631 28.9524 9.00165 29.7143C 10.877 30.6667 13.3149 31.0476 15.9404 31.0476C 17.8158 31.0476 19.5036 30.8571 21.0039 30.2857C 22.5041 29.7143 24.0044 28.9524 25.1296 28.1905C 26.2548 27.2381 27.38 26.0952 28.1302 24.7619C 28.8803 23.4286 29.4429 21.9048 29.6304 20.381L 8.25152 20.381L 8.25152 14.4762L 29.0678 14.4762C 28.6928 13.1429 27.9426 12 27.1925 10.8571C 26.4424 9.71429 25.3172 8.95238 24.1919 8.19048C 23.0667 7.42857 21.754 6.85714 20.2537 6.47619C 18.941 6.09524 17.4407 5.90476 15.9404 5.90476Z"/>
<path id="path16_fill" d="M 1.43077e-06 30.2857L 0.187533 30.2857C 1.87534 30.2857 3.18809 29.7143 4.31329 28.5714C 5.4385 27.4286 6.18864 26.0952 6.56371 24.3809L 9.56426 5.90476L 5.06343 5.90476L 5.06343 -1.81652e-07L 33.7562 -1.81652e-07L 33.7562 30.2857L 38.4446 30.2857L 38.4446 42.8571L 33.1936 42.8571L 32.631 36L 5.81357 36L 5.25096 42.8571L 1.43077e-06 42.8571L 1.43077e-06 30.2857ZM 10.1269 30.2857L 28.3177 30.2857L 28.3177 5.90476L 15.5654 5.90476L 12.3773 25.5238C 12.1897 26.4762 12.0022 27.2381 11.4396 28.1905C 11.0645 28.9524 10.5019 29.7143 10.1269 30.2857Z"/>
<path id="path17_fill" d="M 25.3171 30.2857L 29.0678 30.2857L 29.0678 5.90476L 27.5676 5.90476L 14.4402 36.1905L 3.75069 36.1905L 3.75069 5.90476L -2.86155e-06 5.90476L -2.86155e-06 -1.81652e-07L 13.3149 -1.81652e-07L 13.3149 5.90476L 9.56426 5.90476L 9.56426 30.4762L 10.877 30.4762L 24.0044 0.190476L 38.4446 0.190476L 38.4446 6.09524L 34.6939 6.09524L 34.6939 30.6667L 38.4446 30.6667L 38.4446 36.5714L 25.1296 36.5714L 25.1296 30.2857L 25.3171 30.2857Z"/>
<path id="path18_fill" d="M 19.8787 5.33333C 17.8158 5.33333 16.128 5.71429 14.4402 6.28571C 12.7523 6.85714 11.2521 7.80952 10.1269 8.95238C 8.81413 10.0952 7.87645 11.4286 7.31385 12.9524C 6.56371 14.4762 6.18863 16.1905 6.18863 18.0952C 6.18863 20 6.56371 21.7143 7.31385 23.2381C 8.06399 24.7619 9.00166 26.0952 10.1269 27.2381C 11.4396 28.381 12.7523 29.1429 14.4402 29.9048C 16.128 30.4762 18.0033 30.8571 19.8787 30.8571C 22.5041 30.8571 24.7545 30.4762 26.8174 29.5238C 28.6928 28.5714 30.3806 27.2381 31.5058 25.7143L 35.8191 29.7143C 33.9437 32 31.6933 33.7143 28.8803 35.0476C 26.0673 36.3809 23.0667 36.9524 19.8787 36.9524C 17.2532 36.9524 14.8152 36.5714 12.3773 35.619C 9.93933 34.8571 7.87644 33.5238 6.0011 32C 4.12576 30.4762 2.62549 28.3809 1.68782 26.0952C 0.562609 23.8095 2.86155e-06 21.3333 2.86155e-06 18.4762C 2.86155e-06 15.619 0.562609 12.9524 1.68782 10.6667C 2.81302 8.38095 4.31329 6.47619 6.0011 4.95238C 7.87644 3.42857 9.93933 2.09524 12.3773 1.33333C 14.8152 0.571428 17.2532 -3.63304e-07 19.8787 -3.63304e-07C 21.9415 -3.63304e-07 23.8169 0.190476 25.3172 0.380953C 26.8174 0.571429 28.3177 0.952381 29.4429 1.52381C 30.5681 1.90476 31.6933 2.47619 32.4435 2.85714C 33.1936 3.42857 33.9437 3.80952 34.6939 4.19047L 34.6939 10.4762L 29.4429 10.4762L 29.2554 8C 28.6928 7.61905 28.1302 7.23809 27.5676 7.04762C 27.005 6.85714 26.2548 6.47619 25.6922 6.28571C 24.9421 6.09524 24.192 5.90476 23.2543 5.90476C 22.1291 5.33333 21.0039 5.33333 19.8787 5.33333Z"/>
<path id="path19_fill" d="M -2.86155e-06 18.4762C -2.86155e-06 15.619 0.562603 12.9524 1.68781 10.6667C 2.81302 8.38095 4.3133 6.47619 6.00111 4.95238C 7.87645 3.42857 9.93932 2.09524 12.3773 1.33333C 14.8152 0.571429 17.2532 1.81652e-07 19.8786 1.81652e-07C 22.5041 1.81652e-07 25.1296 0.380953 27.5676 1.33333C 30.0055 2.09524 32.0684 3.42857 33.7562 4.95238C 35.6315 6.47619 36.9443 8.38095 38.0695 10.6667C 39.1947 12.9524 39.5698 15.619 39.5698 18.4762C 39.5698 21.3333 39.0072 23.8095 38.0695 26.0952C 36.9443 28.381 35.6315 30.2857 33.7562 32C 31.8809 33.5238 29.818 34.8571 27.5676 35.8095C 25.1296 36.7619 22.6917 37.1429 19.8786 37.1429C 17.2532 37.1429 14.8152 36.7619 12.3773 35.8095C 9.93932 35.0476 7.87645 33.7143 6.00111 32.1905C 4.12576 30.6667 2.62548 28.5714 1.68781 26.2857C 0.562603 23.8095 -2.86155e-06 21.3333 -2.86155e-06 18.4762ZM 19.8786 5.90476C 17.8158 5.90476 16.128 6.28571 14.4402 6.85714C 12.7523 7.42857 11.2521 8.38095 10.1269 9.52381C 8.81412 10.6667 7.87645 12 7.12631 13.5238C 6.37617 15.0476 6.00111 16.7619 6.00111 18.6667C 6.00111 20.5714 6.37617 22.2857 7.12631 23.8095C 7.87645 25.3333 8.81412 26.6667 10.1269 27.8095C 11.4396 28.9524 12.7523 29.7143 14.4402 30.4762C 16.128 31.0476 18.0033 31.4286 19.8786 31.4286C 21.9415 31.4286 23.8169 31.0476 25.5047 30.4762C 27.1925 29.9048 28.6928 28.9524 29.818 27.8095C 30.9432 26.6667 31.8809 25.3333 32.631 23.8095C 33.1936 22.2857 33.5687 20.5714 33.5687 18.6667C 33.5687 16.7619 33.1936 15.0476 32.631 13.5238C 32.0684 12 31.1307 10.6667 29.818 9.52381C 28.6928 8.38095 27.1925 7.61905 25.5047 6.85714C 23.8169 6.09524 21.9415 5.90476 19.8786 5.90476Z"/>
<path id="path20_fill" d="M 13.3149 5.90476L 9.56426 5.90476L 9.56426 14.0952L 29.0678 14.0952L 29.0678 5.71429L 25.3171 5.71429L 25.3171 -1.81652e-07L 38.6321 -1.81652e-07L 38.6321 5.90476L 34.8814 5.90476L 34.8814 30.4762L 38.6321 30.4762L 38.6321 36.381L 25.3171 36.381L 25.3171 30.4762L 29.0678 30.4762L 29.0678 20.1905L 9.56426 20.1905L 9.56426 30.4762L 13.3149 30.4762L 13.3149 36.381L 2.86155e-06 36.381L 2.86155e-06 30.4762L 3.75069 30.4762L 3.75069 5.90476L 2.86155e-06 5.90476L 2.86155e-06 -1.81652e-07L 13.3149 -1.81652e-07L 13.3149 5.90476Z"/>
<path id="path21_fill" d="M 1.43077e-06 4C 1.43077e-06 3.42857 0.187537 2.85714 0.375072 2.28571C 0.562606 1.71429 0.937675 1.33333 1.31274 0.952379C 1.68781 0.571427 2.25041 0.380952 2.62548 0.190475C 3.18808 -7.23771e-07 3.75069 -1.45322e-06 4.31329 -1.45322e-06C 4.8759 -1.45322e-06 5.4385 -7.23771e-07 6.00111 0.190475C 6.56371 0.380952 6.93877 0.571427 7.31384 0.952379C 7.68891 1.33333 8.06398 1.71429 8.25152 2.28571C 8.43905 2.85714 8.62659 3.42857 8.62659 4C 8.62659 4.57143 8.43905 5.14286 8.25152 5.71428C 8.06398 6.28571 7.68891 6.66667 7.31384 7.04762C 6.93877 7.42857 6.37618 7.61905 6.00111 7.80953C 5.4385 8 4.8759 8 4.31329 8C 3.75069 8 3.18808 8 2.62548 7.80953C 2.06288 7.61905 1.68781 7.42857 1.31274 7.04762C 0.937675 6.66667 0.562606 6.28571 0.375072 5.71428C 0.187537 5.33333 1.43077e-06 4.76191 1.43077e-06 4ZM 4.50082 1.71429C 4.12576 1.71429 3.75069 1.71428 3.37562 1.90476C 3.00055 2.09524 2.81302 2.28571 2.43795 2.47619C 2.25041 2.66667 2.06288 2.85714 1.87535 3.23809C 1.68781 3.61905 1.68781 3.80952 1.68781 4.19048C 1.68781 4.57143 1.68781 4.95238 1.87535 5.14286C 2.06288 5.52381 2.25041 5.71429 2.43795 5.90476C 2.62548 6.09524 3.00055 6.28572 3.37562 6.47619C 3.75069 6.66667 4.12576 6.66666 4.50082 6.66666C 4.87589 6.66666 5.25097 6.66667 5.62604 6.47619C 6.00111 6.28572 6.18864 6.09524 6.56371 5.90476C 6.75124 5.71429 6.93878 5.52381 7.12631 5.14286C 7.31385 4.7619 7.31384 4.57143 7.31384 4.19048C 7.31384 3.80952 7.31385 3.42857 7.12631 3.23809C 6.93878 2.85714 6.75124 2.66667 6.56371 2.47619C 6.37617 2.28571 6.00111 2.09524 5.62604 1.90476C 5.25097 1.71428 4.87589 1.71429 4.50082 1.71429Z"/>
<path id="path22_fill" d="M 6.18864 2.66666L 6.0011 1.90476C 5.81357 1.71428 5.4385 1.71428 5.25096 1.71428C 5.06343 1.71428 4.68836 1.52381 4.31329 1.52381C 3.93822 1.52381 3.56316 1.52381 3.18809 1.71428C 2.81302 1.90476 2.62548 1.90476 2.25042 2.28571C 2.06288 2.47619 1.87535 2.66667 1.68781 3.04762C 1.50028 3.42857 1.50027 3.61905 1.50027 4C 1.50027 4.38095 1.50028 4.7619 1.68781 4.95238C 1.87535 5.33333 2.06288 5.52381 2.25042 5.71429C 2.43795 5.90476 2.81302 6.09524 3.18809 6.28571C 3.56316 6.47619 3.93822 6.47619 4.31329 6.47619C 4.87589 6.47619 5.4385 6.47619 5.81357 6.28571C 6.18863 6.09524 6.5637 5.90476 6.75124 5.71429L 7.87645 6.85714C 7.50138 7.23809 6.93878 7.61905 6.37617 7.80952C 5.81357 8 5.06343 8.19048 4.31329 8.19048C 3.75069 8.19048 3.18809 8.19047 2.62549 8C 2.06288 7.80952 1.68781 7.61905 1.31274 7.2381C 0.937674 6.85714 0.562605 6.47619 0.37507 5.90476C 0.187536 5.33333 1.33251e-14 4.7619 1.33251e-14 4.19047C 1.33251e-14 3.61904 0.187536 3.04762 0.37507 2.47619C 0.562605 1.90476 0.937674 1.52381 1.31274 1.14286C 1.68781 0.761905 2.25042 0.571429 2.62549 0.380953C 3.18809 0.190477 3.75069 -7.26609e-07 4.31329 -7.26609e-07C 4.87589 -7.26609e-07 5.62604 0 6.0011 0.190476C 6.56371 0.380952 6.93878 0.571428 7.50138 0.95238L 7.50138 2.66666L 6.18864 2.66666Z"/>
<path id="path23_fill" d="M 9.00166 8L 6.37617 8L 6.37617 4.57143L 2.62548 4.57143L 2.62548 6.28571L 3.56315 6.28571L 3.56315 7.80953L 1.43077e-06 7.80953L 1.43077e-06 6.28571L 0.937674 6.28571L 0.937674 1.52381L 1.43077e-06 1.52381L 1.43077e-06 -1.45322e-06L 2.62548 -1.45322e-06L 2.62548 3.23809L 6.37617 3.23809L 6.37617 1.71429L 5.4385 1.71429L 5.4385 0.190475L 9.00166 0.190475L 9.00166 1.71429L 8.06398 1.71429L 8.06398 6.47619L 9.00166 6.47619L 9.00166 8Z"/>
<path id="path24_fill" d="M 0 4C 0 3.42857 0.187529 2.85714 0.375063 2.28571C 0.562598 1.71429 0.937667 1.33333 1.31274 0.952379C 1.6878 0.571427 2.25042 0.380952 2.62549 0.190475C 3.18809 -7.23771e-07 3.7507 -1.45322e-06 4.3133 -1.45322e-06C 4.8759 -1.45322e-06 5.43849 -7.23771e-07 6.0011 0.190475C 6.5637 0.380952 6.93878 0.571427 7.31385 0.952379C 7.68892 1.33333 8.06399 1.71429 8.25152 2.28571C 8.43906 2.85714 8.62658 3.42857 8.62658 4C 8.62658 4.57143 8.43906 5.14286 8.25152 5.71428C 8.06399 6.28571 7.68892 6.66667 7.31385 7.04762C 6.93878 7.42857 6.37617 7.61905 6.0011 7.80953C 5.43849 8 4.8759 8 4.3133 8C 3.7507 8 3.18809 8 2.62549 7.80953C 2.06288 7.61905 1.6878 7.42857 1.31274 7.04762C 0.937667 6.66667 0.562598 6.28571 0.375063 5.71428C 0.187529 5.33333 0 4.76191 0 4ZM 4.3133 1.71429C 3.93823 1.71429 3.56315 1.71428 3.18808 1.90476C 2.81301 2.09524 2.62548 2.28571 2.25041 2.47619C 2.06287 2.66667 1.87535 2.85714 1.68781 3.23809C 1.50028 3.61905 1.50028 3.80952 1.50028 4.19048C 1.50028 4.57143 1.50028 4.95238 1.68781 5.14286C 1.87535 5.52381 2.06287 5.71429 2.25041 5.90476C 2.43794 6.09524 2.81301 6.28572 3.18808 6.47619C 3.56315 6.66667 3.93823 6.66666 4.3133 6.66666C 4.68837 6.66666 5.06343 6.66667 5.4385 6.47619C 5.81357 6.28572 6.00111 6.09524 6.37618 5.90476C 6.56371 5.71429 6.75124 5.52381 6.93877 5.14286C 7.12631 4.7619 7.12632 4.57143 7.12632 4.19048C 7.12632 3.80952 7.12631 3.42857 6.93877 3.23809C 6.75124 2.85714 6.56371 2.66667 6.37618 2.47619C 6.18864 2.28571 5.81357 2.09524 5.4385 1.90476C 5.06343 1.71428 4.68837 1.71429 4.3133 1.71429Z"/>
<path id="path25_fill" d="M -5.7231e-06 6.28571L 0.937667 6.28571L 0.937667 1.52381L -5.7231e-06 1.52381L -5.7231e-06 -7.26609e-07L 5.25097 -7.26609e-07C 5.62603 -7.26609e-07 5.81357 0 6.18864 0.190476C 6.37617 0.380952 6.75124 0.380951 6.93878 0.761903C 7.12631 0.952379 7.31384 1.14286 7.50137 1.52381C 7.68891 1.71429 7.68892 2.09524 7.68892 2.47619C 7.68892 3.04762 7.50138 3.42857 7.31384 3.80953C 7.50138 4 7.68892 4.19047 7.87645 4.57143C 8.06399 4.95238 8.06398 5.14285 8.06398 5.52381C 8.06398 5.90476 8.06399 6.09524 7.87645 6.47619C 7.68892 6.85714 7.50138 7.04762 7.31384 7.2381C 7.12631 7.42857 6.75124 7.61905 6.5637 7.80952C 6.18863 8 6.0011 8 5.62603 8L 0.18754 8L 0.18754 6.28571L -5.7231e-06 6.28571ZM 2.62548 3.04762L 5.25097 3.04762C 5.4385 3.04762 5.62604 2.85714 5.81357 2.85714C 6.00111 2.66667 6.00111 2.47619 6.00111 2.28571C 6.00111 2.09524 6.00111 1.90476 5.81357 1.71428C 5.62604 1.52381 5.4385 1.52381 5.25097 1.52381L 2.62548 1.52381L 2.62548 3.04762ZM 5.62603 6.28571C 5.81356 6.28571 6.0011 6.28571 6.18864 6.09523C 6.37617 5.90476 6.37617 5.71428 6.37617 5.52381C 6.37617 5.33333 6.37617 5.14286 6.18864 4.95238C 6.0011 4.7619 5.81356 4.76191 5.62603 4.76191L 2.62548 4.76191L 2.62548 6.47619L 5.62603 6.47619L 5.62603 6.28571Z"/>
<path id="path26_fill" d="M 6.37618 8.38095L 6.18864 7.42857C 5.81357 7.80952 5.25096 8 4.87589 8.19048C 4.31329 8.38095 3.75068 8.38095 3.18808 8.38095C 2.62548 8.38095 2.06288 8.38095 1.68781 8.19048C 1.31274 8 0.937675 7.80952 0.750141 7.61904C 0.562606 7.42857 0.375066 7.04762 0.187532 6.85714C 0.187532 6.47619 0 6.28572 0 5.90476C 0 5.52381 -2.86434e-06 5.14286 0.187532 4.95238C 0.375066 4.57143 0.562606 4.38095 0.750141 4.19047C 0.937675 4 1.31275 3.80952 1.50028 3.61905C 1.87535 3.42857 2.06289 3.42857 2.43795 3.42857L 5.81357 3.42857C 5.81357 3.23809 5.81357 2.85714 5.81357 2.66667C 5.81357 2.47619 5.62604 2.28572 5.4385 2.09524C 5.25097 1.90476 5.06343 1.90476 4.87589 1.71429C 4.68836 1.71429 4.31329 1.71429 3.93822 1.71429C 3.56315 1.71429 3.18809 1.71429 2.81302 1.71429C 2.43795 1.71429 2.25041 1.90476 1.87534 1.90476L 1.87534 2.66667L 0.375063 2.66667L 0.375063 0.952382C 0.562598 0.761905 0.750135 0.761904 1.1252 0.571428C 1.31274 0.380952 1.68781 0.380954 2.06288 0.190478C 2.43795 1.44754e-06 2.62548 7.26609e-07 3.00055 7.26609e-07C 3.37562 7.26609e-07 3.56315 7.26609e-07 3.93822 7.26609e-07C 4.50082 7.26609e-07 5.06343 1.44754e-06 5.4385 0.190478C 5.81357 0.380954 6.18864 0.380952 6.56371 0.761905C 6.93878 0.952381 7.12632 1.33333 7.12632 1.71429C 7.31385 2.09524 7.31385 2.66666 7.31385 3.23809L 7.31385 6.47619L 8.25152 6.47619L 8.25152 8L 6.37618 8L 6.37618 8.38095ZM 1.87534 5.90476C 1.87534 6.28572 2.06287 6.47619 2.25041 6.66666C 2.43794 6.85714 2.81302 7.04762 3.37563 7.04762C 3.7507 7.04762 4.12576 7.04762 4.50083 6.85714C 4.8759 6.85714 5.06344 6.66667 5.25097 6.47619C 5.43851 6.28571 5.62603 6.09524 5.81357 5.90476C 6.0011 5.71429 6.00111 5.52381 6.18864 5.14286L 6.18864 4.95238L 3.00055 4.95238C 2.62548 4.95238 2.43794 5.14286 2.25041 5.14286C 1.87534 5.52381 1.87534 5.71429 1.87534 5.90476Z"/>
<path id="path27_fill" d="M 9.00166 8L 6.37617 8L 6.37617 4.57143L 2.62548 4.57143L 2.62548 6.28571L 3.56315 6.28571L 3.56315 7.80953L -5.7231e-06 7.80953L -5.7231e-06 6.28571L 0.937667 6.28571L 0.937667 1.52381L -5.7231e-06 1.52381L -5.7231e-06 -1.45322e-06L 2.62548 -1.45322e-06L 2.62548 3.23809L 6.37617 3.23809L 6.37617 1.71429L 5.4385 1.71429L 5.4385 0.190475L 9.00166 0.190475L 9.00166 1.71429L 8.06398 1.71429L 8.06398 6.47619L 9.00166 6.47619L 9.00166 8Z"/>
<path id="path28_fill" d="M 6.18864 8.38095L 6.0011 7.42857C 5.62603 7.80952 5.06343 8 4.68836 8.19048C 4.12576 8.38095 3.56315 8.38095 3.00055 8.38095C 2.43795 8.38095 1.87535 8.38095 1.50028 8.19048C 1.12521 8 0.750144 7.80952 0.562609 7.61904C 0.375075 7.42857 0.187532 7.04762 0.187532 6.85714C 0.187532 6.47619 0 6.28572 0 5.90476C 0 5.52381 -2.86434e-06 5.14286 0.187532 4.95238C 0.375066 4.57143 0.562606 4.38095 0.750141 4.19047C 0.937675 4 1.31275 3.80952 1.50028 3.61905C 1.87535 3.42857 2.06288 3.42857 2.43795 3.42857L 5.81357 3.42857C 5.81357 3.23809 5.81357 2.85714 5.62603 2.66667C 5.62603 2.47619 5.43851 2.28572 5.25097 2.09524C 5.06344 1.90476 4.8759 1.90476 4.68836 1.71429C 4.50083 1.71429 4.12576 1.71429 3.75069 1.71429C 3.37562 1.71429 3.00055 1.71429 2.62549 1.71429C 2.25042 1.71429 2.06288 1.90476 1.68781 1.90476L 1.68781 2.66667L 0.187532 2.66667L 0.187532 0.952382C 0.375066 0.761905 0.562603 0.761904 0.937672 0.571428C 1.12521 0.380952 1.50028 0.380954 1.87534 0.190478C 2.25041 1.44754e-06 2.43795 7.26609e-07 2.81302 7.26609e-07C 3.18809 7.26609e-07 3.37562 7.26609e-07 3.75069 7.26609e-07C 4.31329 7.26609e-07 4.8759 1.44754e-06 5.25097 0.190478C 5.62604 0.380954 6.00111 0.380952 6.37617 0.761905C 6.75124 0.952381 6.93877 1.33333 6.93877 1.71429C 7.1263 2.09524 7.12632 2.66666 7.12632 3.23809L 7.12632 6.47619L 8.43905 6.47619L 8.43905 8L 6.18864 8L 6.18864 8.38095ZM 1.68781 5.90476C 1.68781 6.28572 1.87534 6.47619 2.06288 6.66666C 2.25041 6.85714 2.62548 7.04762 3.18808 7.04762C 3.56315 7.04762 3.93823 7.04762 4.3133 6.85714C 4.68837 6.85714 4.87589 6.66667 5.06342 6.47619C 5.25096 6.28571 5.4385 6.09524 5.62603 5.90476C 5.81357 5.71429 5.81356 5.52381 6.0011 5.14286L 6.0011 4.95238L 2.81302 4.95238C 2.43795 4.95238 2.25041 5.14286 2.06288 5.14286C 1.68781 5.52381 1.68781 5.71429 1.68781 5.90476Z"/>
<path id="path29_fill" d="M 2.86155e-06 6.28571L 0.937675 6.28571L 0.937675 1.52381L 2.86155e-06 1.52381L 2.86155e-06 -7.26609e-07L 5.25096 -7.26609e-07C 5.62603 -7.26609e-07 5.81356 0 6.18863 0.190476C 6.37617 0.380952 6.75124 0.380951 6.93877 0.761903C 7.12631 0.952379 7.31385 1.14286 7.50138 1.52381C 7.68892 1.71429 7.68891 2.09524 7.68891 2.47619C 7.68891 3.04762 7.50138 3.42857 7.31385 3.80953C 7.50138 4 7.68891 4.19047 7.87645 4.57143C 8.06398 4.95238 8.06398 5.14285 8.06398 5.52381C 8.06398 5.90476 8.06398 6.09524 7.87645 6.47619C 7.68891 6.85714 7.50138 7.04762 7.31385 7.2381C 7.12632 7.42857 6.75124 7.61905 6.56371 7.80952C 6.18864 8 6.00111 8 5.62604 8L 0.187534 8L 0.187534 6.28571L 2.86155e-06 6.28571ZM 2.43794 3.04762L 5.25096 3.04762C 5.43849 3.04762 5.62603 2.85714 5.81357 2.85714C 6.0011 2.66667 6.0011 2.47619 6.0011 2.28571C 6.0011 2.09524 6.0011 1.90476 5.81357 1.71428C 5.62603 1.52381 5.43849 1.52381 5.25096 1.52381L 2.62549 1.52381L 2.62549 3.04762L 2.43794 3.04762ZM 5.43851 6.28571C 5.62604 6.28571 5.81357 6.28571 6.0011 6.09523C 6.18863 5.90476 6.18863 5.71428 6.18863 5.52381C 6.18863 5.33333 6.18863 5.14286 6.0011 4.95238C 5.81357 4.7619 5.62604 4.76191 5.43851 4.76191L 2.43794 4.76191L 2.43794 6.47619L 5.43851 6.47619L 5.43851 6.28571Z"/>
<path id="path30_fill" d="M 9.18918 9.90476L 0.375069 9.90476L 0.375069 8.38095C 0.375069 8 0.375066 7.42857 0.562601 7.23809C 0.750135 6.85714 0.937672 6.47619 1.31274 6.09524C 1.68781 5.71429 2.06287 5.52381 2.62548 5.14286C 3.18808 4.7619 3.75068 4.57143 4.50082 4.38095C 5.06343 4.19048 5.62603 4 6.0011 3.80952C 6.37617 3.61905 6.56371 3.61905 6.75124 3.42857C 6.93878 3.2381 6.93877 3.23809 7.12631 3.04762C 7.12631 2.85714 7.12631 2.85714 7.12631 2.66667C 7.12631 2.47619 7.12631 2.28571 6.93878 2.09524C 6.75124 1.90476 6.5637 1.90476 6.37617 1.71429C 6.18863 1.71429 5.81357 1.52381 5.62604 1.52381C 5.25097 1.52381 5.06344 1.52381 4.68837 1.52381C 4.3133 1.52381 3.93822 1.52381 3.56315 1.71429C 3.18808 1.71429 2.81301 1.90476 2.62548 2.09524C 2.25041 2.28571 2.06287 2.28572 1.6878 2.47619C 1.50027 2.66667 1.31274 2.85714 1.12521 3.04762L 5.7231e-06 1.90476C 0.18754 1.52381 0.562609 1.33333 0.937678 1.14286C 1.31275 0.95238 1.68781 0.761905 2.06288 0.571429C 2.43795 0.380953 2.81301 0.190475 3.37562 0.190475C 3.75069 0.190475 4.3133 -1.45322e-06 4.68837 -1.45322e-06C 5.25097 -1.45322e-06 5.81356 -7.23771e-07 6.37617 0.190475C 6.93877 0.190475 7.31385 0.380953 7.68892 0.571429C 8.06398 0.761905 8.25152 0.952381 8.62659 1.33333C 8.81412 1.71429 9.00165 2.09524 9.00165 2.66667C 9.00165 3.04762 9.00165 3.42857 8.81412 3.61905C 8.62659 3.80953 8.43905 4.19048 8.06398 4.38095C 7.68891 4.57143 7.31385 4.7619 6.93878 4.95238C 6.56371 5.14286 6.0011 5.33333 5.43849 5.52381C 4.68836 5.71429 4.12576 6.09524 3.7507 6.28571C 3.37563 6.47619 3.00055 6.85714 2.62548 7.04762C 2.43794 7.2381 2.25042 7.42857 2.06288 7.80953C 1.87535 8 1.87535 8.19048 1.87535 8.38095L 7.50138 8.38095L 7.68892 7.23809L 9.18918 7.23809L 9.18918 9.90476Z"/>
<path id="path31_fill" d="M 2.86155e-06 4.95238C 2.86155e-06 4.19048 0.187532 3.42857 0.375066 2.85714C 0.562601 2.28571 0.937667 1.71429 1.50027 1.33333C 1.87534 0.952382 2.43795 0.571429 3.18808 0.380953C 3.75069 0.190477 4.50082 -7.26609e-07 5.06343 -7.26609e-07C 5.81357 -7.26609e-07 6.37617 0.190477 7.1263 0.380953C 7.68891 0.571429 8.25152 0.952382 8.62659 1.33333C 9.00165 1.71429 9.37672 2.28571 9.75179 2.85714C 9.93932 3.42857 10.1269 4.19048 10.1269 4.95238C 10.1269 5.71429 9.93932 6.28571 9.75179 7.04762C 9.56425 7.61904 9.18919 8.19048 8.62659 8.57143C 8.25152 8.95238 7.68891 9.33334 7.1263 9.52381C 6.5637 9.71429 5.81357 9.90476 5.06343 9.90476C 4.31329 9.90476 3.75069 9.71429 3.18808 9.52381C 2.62548 9.33334 2.06287 8.95238 1.50027 8.57143C 1.1252 8.19048 0.750135 7.61904 0.375066 7.04762C 0.187532 6.28571 2.86155e-06 5.71429 2.86155e-06 4.95238ZM 5.06343 1.52381C 4.50082 1.52381 4.12576 1.52381 3.56316 1.71428C 3.18809 1.90476 2.81301 2.09524 2.43794 2.47619C 2.06287 2.85714 1.87535 3.04762 1.68782 3.61905C 1.50028 4 1.50027 4.57143 1.50027 4.95238C 1.50027 5.52381 1.50028 5.90476 1.68782 6.28572C 1.87535 6.66667 2.06287 7.04762 2.43794 7.42857C 2.81301 7.80952 3.18809 8 3.56316 8.19048C 3.93823 8.38095 4.50082 8.38095 5.06343 8.38095C 5.62603 8.38095 6.18864 8.38095 6.56371 8.19048C 6.93878 8 7.31384 7.80952 7.68891 7.42857C 8.06398 7.04762 8.25152 6.85714 8.43905 6.28572C 8.62659 5.90476 8.62659 5.33333 8.62659 4.95238C 8.62659 4.38095 8.62659 4 8.43905 3.61905C 8.25152 3.23809 8.06398 2.85714 7.68891 2.47619C 7.31384 2.09524 7.12631 1.90476 6.56371 1.71428C 6.00111 1.71428 5.62603 1.52381 5.06343 1.52381Z"/>
<path id="path32_fill" d="M 5.7231e-06 4.95238C 5.7231e-06 4.19048 0.187534 3.42857 0.375069 2.85714C 0.562603 2.28571 0.937669 1.71429 1.50027 1.33333C 1.87534 0.952382 2.43795 0.571429 3.18809 0.380953C 3.75069 0.190477 4.50083 -7.26609e-07 5.06343 -7.26609e-07C 5.81357 -7.26609e-07 6.37617 0.190477 7.12631 0.380953C 7.68891 0.571429 8.25152 0.952382 8.62659 1.33333C 9.00166 1.71429 9.37672 2.28571 9.75179 2.85714C 9.93933 3.42857 10.1269 4.19048 10.1269 4.95238C 10.1269 5.71429 9.93933 6.28571 9.75179 7.04762C 9.56426 7.61904 9.18919 8.19048 8.62659 8.57143C 8.25152 8.95238 7.68891 9.33334 7.12631 9.52381C 6.5637 9.71429 5.81357 9.90476 5.06343 9.90476C 4.31329 9.90476 3.75069 9.71429 3.18809 9.52381C 2.62548 9.33334 2.06288 8.95238 1.50027 8.57143C 1.1252 8.19048 0.750138 7.61904 0.375069 7.04762C 0.187534 6.28571 5.7231e-06 5.71429 5.7231e-06 4.95238ZM 5.06343 1.52381C 4.50083 1.52381 4.12575 1.52381 3.56315 1.71428C 3.18808 1.90476 2.81301 2.09524 2.43795 2.47619C 2.06288 2.85714 1.87534 3.04762 1.6878 3.61905C 1.50027 4 1.50027 4.57143 1.50027 4.95238C 1.50027 5.52381 1.50027 5.90476 1.6878 6.28572C 1.87534 6.66667 2.06288 7.04762 2.43795 7.42857C 2.81301 7.80952 3.00055 8 3.56315 8.19048C 3.93822 8.38095 4.50083 8.38095 5.06343 8.38095C 5.62603 8.38095 6.18864 8.38095 6.56371 8.19048C 6.93878 8 7.31385 7.80952 7.68892 7.42857C 8.06398 7.04762 8.25151 6.85714 8.25151 6.28572C 8.43904 5.90476 8.43906 5.33333 8.43906 4.95238C 8.43906 4.38095 8.43904 4 8.25151 3.61905C 8.06398 3.23809 7.87645 2.85714 7.68892 2.47619C 7.31385 2.09524 7.12632 1.90476 6.56371 1.71428C 6.00111 1.71428 5.62603 1.52381 5.06343 1.52381Z"/>
<path id="path33_fill" d="M 5.25095 9.90476C 4.50082 9.90476 3.7507 9.71429 3.18809 9.52381C 2.62549 9.33334 2.06287 8.95238 1.50026 8.57143C 1.1252 8.19048 0.750144 7.61904 0.375075 7.04762C 0.18754 6.47619 1.14462e-05 5.71429 1.14462e-05 4.95238C 1.14462e-05 4.19048 0.18754 3.42857 0.375075 2.85714C 0.562609 2.28571 0.937661 1.71429 1.50026 1.33333C 2.06287 0.952382 2.43795 0.571429 3.18809 0.380953C 3.7507 0.190477 4.50083 -7.26609e-07 5.06344 -7.26609e-07C 5.43851 -7.26609e-07 5.81356 -7.26609e-07 6.18863 -7.26609e-07C 6.5637 -7.26609e-07 6.93877 0 7.1263 0.190476C 7.50137 0.380952 7.87644 0.380954 8.06397 0.57143C 8.43904 0.761906 8.81412 0.952382 9.18919 1.33333L 8.25152 2.47619C 7.87645 2.28572 7.68891 2.09524 7.31385 1.90476C 7.12631 1.71429 6.75125 1.71429 6.56372 1.52381C 6.37618 1.52381 6.0011 1.33333 5.81356 1.33333C 5.62603 1.33333 5.25096 1.33333 4.87589 1.33333C 3.93822 1.33333 3.18808 1.52381 2.43794 2.09524C 1.87533 2.66667 1.50028 3.2381 1.31275 4C 1.50028 4 1.68782 3.80952 1.87536 3.61905C 2.06289 3.42857 2.25041 3.42857 2.62548 3.2381C 3.00055 3.04762 3.18809 3.04762 3.56316 3.04762C 3.93822 3.04762 4.31329 2.85714 4.87589 2.85714C 5.4385 2.85714 6.18863 2.85714 6.75124 3.04762C 7.31384 3.2381 7.87645 3.42857 8.25152 3.61905C 8.62659 3.80952 9.00167 4.19047 9.37674 4.57143C 9.56427 4.95238 9.7518 5.33333 9.7518 5.90476C 9.7518 6.47619 9.56427 7.04762 9.37674 7.42857C 9.00167 7.80952 8.81412 8.19048 8.25152 8.57143C 7.87645 8.95238 7.31384 9.14286 6.75124 9.33333C 6.5637 9.71428 6.00109 9.90476 5.25095 9.90476ZM 5.25095 8.19048C 5.62602 8.19048 6.0011 8.19047 6.37617 8C 6.75124 8 7.12631 7.80953 7.31385 7.61905C 7.68891 7.42857 7.87644 7.23809 8.06397 7.04762C 8.25151 6.85714 8.43906 6.47619 8.43906 6.28572C 8.43906 5.90476 8.25151 5.33333 7.68891 5.14285C 7.12631 4.7619 6.37616 4.7619 5.25095 4.7619C 4.87589 4.7619 4.50083 4.7619 4.12576 4.95238C 3.7507 4.95238 3.37563 5.14286 3.18809 5.33333C 2.81302 5.52381 2.62547 5.52381 2.43794 5.71429C 2.2504 5.90476 2.06289 5.90476 1.87536 6.09523C 2.06289 6.85714 2.43794 7.42857 3.00055 7.80952C 3.56315 8 4.31328 8.19048 5.25095 8.19048Z"/>
</defs>
</svg>
