<svg width="150" height="40" viewBox="0 0 150 40" version="1.1" xmlns="http://www.w3.org/2000/svg" xmlns:xlink="http://www.w3.org/1999/xlink" xmlns:figma="http://www.figma.com/figma/ns">
<title>Logo</title>
<desc>Created using Figma</desc>
<g id="Canvas" transform="translate(-45 -930)" figma:type="canvas">
<g id="Logo" figma:type="frame">
<g id="part-3" figma:type="frame">
<g id="Vector" figma:type="vector">
<use xlink:href="#path0_fill" transform="translate(186.466 959.773)" fill="#7B8586"/>
</g>
<g id="Vector" figma:type="vector">
<use xlink:href="#path1_fill" transform="translate(158.305 959.016)" fill="#7B8586"/>
</g>
<g id="Vector" figma:type="vector">
<use xlink:href="#path2_fill" transform="translate(127.057 959.724)" fill="#7B8586"/>
</g>
<g id="Vector" figma:type="vector">
<use xlink:href="#path3_fill" transform="translate(138.811 959.625)" fill="#7B8586"/>
</g>
<g id="Vector" figma:type="vector">
<use xlink:href="#path4_fill" transform="translate(171.062 959.806)" fill="#7B8586"/>
</g>
<g id="Vector" figma:type="vector">
<use xlink:href="#path5_fill" transform="translate(179.296 959.778)" fill="#7B8586"/>
</g>
<g id="Vector" figma:type="vector">
<use xlink:href="#path6_fill" transform="translate(149.55 959.611)" fill="#7B8586"/>
</g>
<g id="Vector" figma:type="vector">
<use xlink:href="#path7_fill" transform="translate(118.305 959.778)" fill="#7B8586"/>
</g>
</g>
<g id="part-2" figma:type="frame">
<g id="Vector" figma:type="vector">
<use xlink:href="#path8_fill" transform="translate(75.063 930)" fill="#7B8586"/>
</g>
<g id="Vector" figma:type="vector">
<use xlink:href="#path9_fill" transform="translate(83.7604 964.573)" fill="#7B8586"/>
</g>
<g id="Vector" figma:type="vector">
<use xlink:href="#path10_fill" transform="translate(87.5775 957.926)" fill="#7B8586"/>
</g>
<g id="Vector" figma:type="vector">
<use xlink:href="#path11_fill" transform="translate(91.3673 951.251)" fill="#7B8586"/>
</g>
</g>
<g id="part-1" figma:type="frame">
<g id="Vector" figma:type="vector">
<use xlink:href="#path12_fill" transform="translate(73.4544 953.049)" fill="#C2D1BC"/>
</g>
<g id="Vector" figma:type="vector">
<use xlink:href="#path13_fill" transform="translate(66.3454 930.178)" fill="#C2D1BC"/>
</g>
<g id="Vector" figma:type="vector">
<use xlink:href="#path14_fill" transform="translate(45 930.116)" fill="#C2D1BC"/>
</g>
</g>
</g>
</g>
<defs>
<path id="path0_fill" d="M 8.4793 9.13204C 7.87948 9.13204 7.27966 9.1048 6.7071 9.1048C 6.51625 9.1048 6.43445 9.05031 6.37992 8.8596C 6.1618 8.15124 5.94368 7.44288 5.72556 6.73452C 5.67103 6.57105 5.61651 6.54381 5.45292 6.54381C 4.63498 6.54381 3.84432 6.54381 3.02638 6.54381C 2.86279 6.54381 2.781 6.5983 2.75373 6.76177C 2.56288 7.44288 2.31748 8.15124 2.12663 8.83235C 2.0721 9.05031 1.96305 9.1048 1.7722 9.1048C 1.19964 9.07755 0.627083 9.1048 -3.3282e-06 9.1048C 0.0817905 8.8596 0.163591 8.64164 0.245385 8.42368C 1.19965 5.69922 2.18116 2.97477 3.13543 0.250309C 3.18996 0.0595967 3.27175 -0.0221354 3.48986 0.00510919C 4.00789 0.0323538 4.52592 0.0323538 5.04395 0.00510919C 5.26207 0.00510919 5.34387 0.0595983 5.42566 0.277555C 6.40719 3.11099 7.41598 5.94442 8.42477 8.75062C 8.45203 8.83235 8.50655 8.91409 8.53381 8.99582C 8.47929 9.02306 8.4793 9.07755 8.4793 9.13204ZM 5.20755 5.18158C 4.88037 3.92833 4.5532 2.70232 4.25328 1.58529C 3.95337 2.72957 3.6262 3.95557 3.29902 5.18158C 3.92611 5.18158 4.58046 5.18158 5.20755 5.18158Z"/>
<path id="path1_fill" d="M 4.71344 10.6526C 4.71344 10.4074 4.71344 10.1622 4.71344 9.86253C 4.38626 9.86253 4.05909 9.88978 3.75918 9.86253C 3.32295 9.83529 2.91398 9.80804 2.47775 9.72631C 1.38716 9.50835 0.678281 8.85448 0.351106 7.81919C -0.112392 6.18452 -0.112386 4.54984 0.323848 2.91517C 0.678287 1.68916 1.52349 1.03529 2.77766 0.899072C 3.40475 0.844582 4.00456 0.817338 4.65891 0.762849C 4.65891 0.544892 4.65891 0.272446 4.65891 3.87169e-15C 5.31326 3.87169e-15 5.91308 3.87169e-15 6.54017 3.87169e-15C 6.54017 0.245201 6.54017 0.517648 6.54017 0.762849C 7.0582 0.790093 7.54896 0.790092 8.01245 0.844581C 8.6668 0.89907 9.32115 1.00805 9.89371 1.41672C 10.5481 1.90712 10.8752 2.61548 11.0388 3.40557C 11.3115 4.79504 11.3387 6.18452 10.9843 7.57399C 10.6299 8.99071 9.75739 9.69907 8.2851 9.83529C 7.71254 9.88978 7.16726 9.91702 6.56743 9.94427C 6.56743 10.1895 6.56743 10.4347 6.56743 10.7071C 5.96761 10.6526 5.34052 10.6526 4.71344 10.6526ZM 4.68618 8.33684C 4.68618 6.32074 4.68618 4.33189 4.68618 2.34303C 4.33174 2.34303 3.9773 2.34303 3.65012 2.34303C 2.88671 2.37028 2.39595 2.7517 2.17784 3.46006C 1.8234 4.68607 1.85066 5.91207 2.15057 7.16532C 2.28689 7.65573 2.53228 8.06439 3.05031 8.22786C 3.5956 8.39133 4.14089 8.33684 4.68618 8.33684ZM 6.5947 8.30959C 6.92188 8.30959 7.24904 8.30959 7.57622 8.30959C 8.44869 8.25511 8.85766 7.95542 9.1303 7.11083C 9.40295 6.21176 9.37569 5.28545 9.29389 4.38638C 9.26663 4.00495 9.15757 3.59628 9.02125 3.21486C 8.8304 2.72446 8.47596 2.39752 7.93066 2.34303C 7.57622 2.28854 7.22178 2.28854 6.8946 2.2613C 6.67649 2.23406 6.5947 2.31579 6.5947 2.56099C 6.5947 4.38638 6.5947 6.21176 6.5947 8.03715C 6.5947 8.14613 6.5947 8.22786 6.5947 8.30959Z"/>
<path id="path2_fill" d="M 7.96126 3.70526C 7.68862 4.41362 7.41597 5.12198 7.17059 5.83034C 6.78889 6.86563 6.37991 7.90092 5.99821 8.93622C 5.94368 9.09969 5.86189 9.18142 5.67104 9.15418C 5.18028 9.12693 4.66225 9.12693 4.17149 9.15418C 3.98063 9.15418 3.89884 9.07244 3.84431 8.90898C 3.21722 7.21981 2.56287 5.53065 1.93579 3.84148C 1.90852 3.78699 1.88126 3.70526 1.82673 3.65077C 1.82673 5.47616 1.82673 7.30155 1.82673 9.12693C 1.19964 9.12693 0.627084 9.12693 -1.6641e-06 9.12693C -1.6641e-06 6.10279 -1.6641e-06 3.07864 -1.6641e-06 0.05449C 0.0545275 0.05449 0.109058 0.0272437 0.163588 0.0272437C 0.736144 0.0272437 1.3087 0.0272437 1.90852 0.0272437C 1.99031 0.0272437 2.12664 0.108977 2.1539 0.163467C 2.89004 1.87987 3.62619 3.62353 4.30781 5.36718C 4.58046 6.0483 4.68951 6.81114 4.8531 7.5195C 4.88037 7.57399 4.90763 7.65573 4.93489 7.7647C 5.09848 7.08359 5.20754 6.45696 5.39839 5.85758C 5.6983 4.98576 6.05274 4.11393 6.40718 3.2421C 6.81615 2.23405 7.22512 1.25325 7.63409 0.245201C 7.71588 0.0544891 7.79768 -4.15719e-07 7.98853 -4.15719e-07C 8.58835 0.0272442 9.18817 -4.15719e-07 9.81525 -4.15719e-07C 9.81525 3.02415 9.81525 6.0483 9.81525 9.09969C 9.21543 9.09969 8.64287 9.09969 8.01579 9.09969C 8.01579 7.2743 8.01579 5.47616 8.01579 3.67802C 8.01579 3.70526 7.98853 3.70526 7.96126 3.70526Z"/>
<path id="path3_fill" d="M 9.21212 4.70333C 9.15759 5.54791 9.10306 6.39249 8.80315 7.18259C 8.36692 8.29961 7.57625 9.03522 6.37661 9.25317C 5.1497 9.47113 3.89553 9.49838 2.66862 9.22593C 1.35992 8.92624 0.596515 8.02717 0.26934 6.77392C -0.0850996 5.43893 -0.0851012 4.10395 0.242074 2.76896C 0.596514 1.24327 1.55078 0.289706 3.15939 0.0989937C 4.19544 -0.0372292 5.2315 -0.0372296 6.26755 0.126238C 7.79437 0.398684 8.63957 1.35224 8.96674 2.79621C 9.10307 3.39559 9.13033 4.04946 9.21212 4.70333ZM 4.57714 7.91819L 4.57714 7.89094C 4.79526 7.89094 5.01338 7.89094 5.2315 7.89094C 6.21302 7.8637 6.73105 7.48228 7.0037 6.52872C 7.27634 5.65689 7.27634 4.75782 7.16728 3.85875C 7.11275 3.39559 7.0037 2.93243 6.84011 2.49652C 6.62199 1.95163 6.18576 1.62469 5.6132 1.5702C 5.04065 1.51571 4.46809 1.51571 3.92279 1.54296C 2.94127 1.5702 2.39597 1.97887 2.12333 2.93243C 1.90521 3.69528 1.90522 4.51262 1.93248 5.30271C 1.95975 5.90209 2.04154 6.50147 2.31418 7.04636C 2.55957 7.50952 2.94127 7.80921 3.4593 7.8637C 3.841 7.8637 4.2227 7.89095 4.57714 7.91819Z"/>
<path id="path4_fill" d="M 6.78888 4.15719e-07C 6.73435 0.517647 6.70709 1.00805 6.65256 1.49845C 5.07121 1.49845 3.48987 1.49845 1.88126 1.49845C 1.88126 2.20681 1.88126 2.88792 1.88126 3.59628C 3.10816 3.59628 4.33506 3.59628 5.58923 3.59628C 5.58923 4.11393 5.58923 4.60433 5.58923 5.12198C 4.36233 5.12198 3.13543 5.12198 1.88126 5.12198C 1.88126 5.93932 1.88126 6.72941 1.88126 7.5195C 3.51713 7.5195 5.12574 7.5195 6.78888 7.5195C 6.73435 8.03715 6.70709 8.5548 6.65256 9.07244C 4.41686 9.07244 2.23569 9.07244 -3.32819e-06 9.07244C -3.32819e-06 6.04829 -3.32819e-06 3.02415 -3.32819e-06 4.15719e-07C 2.26296 4.15719e-07 4.49866 4.15719e-07 6.78888 4.15719e-07Z"/>
<path id="path5_fill" d="M 1.88126 5.83034C 1.88126 6.92012 1.88126 8.00991 1.88126 9.07244C 1.25417 9.07244 0.627086 9.07244 0 9.07244C 0 6.0483 0 3.02415 0 0.027245C 0.0272646 0.027245 0.0545259 8.31438e-07 0.0817905 8.31438e-07C 1.52681 8.31438e-07 2.94458 4.16125e-07 4.3896 0.027245C 4.77131 0.027245 5.12575 0.0817345 5.50745 0.136224C 6.40719 0.272447 6.95247 0.817337 7.11606 1.71641C 7.25238 2.5065 7.27964 3.32384 7.11606 4.11393C 6.9252 5.06749 6.40719 5.61238 5.42566 5.69411C 4.49867 5.77585 3.57167 5.77585 2.6174 5.83034C 2.39929 5.83034 2.1539 5.83034 1.88126 5.83034ZM 1.88126 4.25015C 2.78099 4.25015 3.65346 4.2774 4.52593 4.25015C 4.9349 4.22291 5.18028 3.97771 5.23481 3.56904C 5.26207 3.13313 5.26207 2.72446 5.23481 2.28854C 5.20754 1.87987 4.96216 1.60743 4.60772 1.60743C 3.70798 1.55294 2.80825 1.55294 1.90852 1.5257C 1.90852 1.63467 1.88126 1.68916 1.88126 1.71641C 1.88126 2.56099 1.88126 3.40557 1.88126 4.25015Z"/>
<path id="path6_fill" d="M 7.77041 0.576009C 7.60682 1.06641 7.4705 1.52957 7.30692 2.01997C 6.84342 1.91099 6.43444 1.77477 5.99821 1.66579C 5.20754 1.47508 4.3896 1.47508 3.57166 1.58406C 2.91731 1.69304 2.48108 2.07446 2.2357 2.67384C 1.96305 3.32771 1.90852 4.00883 1.90852 4.68994C 1.90852 5.34381 1.93578 5.99768 2.1539 6.62431C 2.42655 7.4144 2.9991 7.79582 3.81704 7.87756C 4.98942 8.01378 6.10727 7.79582 7.19785 7.44164C 7.27964 7.4144 7.33418 7.38715 7.44324 7.35991C 7.57956 7.82307 7.74314 8.25898 7.87947 8.6949C 7.90673 8.74938 7.79767 8.8856 7.74314 8.91285C 7.25238 9.07632 6.73435 9.23978 6.24359 9.32152C 5.07121 9.53947 3.89884 9.51223 2.72646 9.29428C 1.47229 9.04907 0.654352 8.25898 0.327177 7.06022C -0.109057 5.53452 -0.109057 3.98158 0.327177 2.45588C 0.681617 1.17539 1.52681 0.385297 2.83552 0.16734C 4.3078 -0.0778608 5.75283 -0.0778612 7.19785 0.330808C 7.36144 0.385297 7.49776 0.439785 7.63409 0.494275C 7.66135 0.494275 7.68861 0.52152 7.77041 0.576009Z"/>
<path id="path7_fill" d="M 7.66135 0.027245C 7.60682 0.490403 7.57956 0.95356 7.52503 1.38947C 7.52503 1.44396 7.38871 1.5257 7.30691 1.5257C 6.5435 1.5257 5.7801 1.5257 5.01669 1.5257C 4.9349 1.5257 4.82583 1.5257 4.68951 1.5257C 4.68951 4.05944 4.68951 6.56594 4.68951 9.07244C 4.06242 9.07244 3.43534 9.07244 2.80825 9.07244C 2.80825 6.56594 2.80825 4.05944 2.80825 1.5257C 1.88126 1.5257 0.954257 1.5257 -3.3282e-06 1.5257C 0.0545259 1.00805 0.0817905 0.517648 0.13632 8.31438e-07C 2.67193 0.0272454 5.15301 0.027245 7.66135 0.027245Z"/>
<path id="path8_fill" d="M 22.1116 0C 22.1389 0.0817337 22.1661 0.163467 22.2206 0.245201C 27.4827 9.50836 32.772 18.7715 38.0341 28.0347C 40.0244 31.522 44.0869 38.6873 44.0869 38.6873L 41.2241 38.6873C 41.2241 38.6873 30.7272 20.2155 25.4379 10.9251C 24.3473 9.01796 23.284 7.11084 22.1934 5.23096C 22.1661 5.17647 22.1116 5.09474 22.0571 5.013C 22.0025 5.09474 21.9753 5.14923 21.9207 5.20372C 16.6041 14.5486 11.2875 23.8935 5.94368 33.2384C 4.93489 34.982 2.83552 38.6873 2.83552 38.6873L -8.32049e-07 38.6873C -8.32049e-07 38.6873 14.5593 13.0502 21.7844 0.381424C 21.8662 0.245201 21.9207 0.136223 22.0025 1.57287e-15C 22.0571 0 22.0843 0 22.1116 0Z"/>
<path id="path9_fill" d="M 1.6641e-06 2.42477C 1.6641e-06 1.60743 1.6641e-06 0.817337 1.6641e-06 4.15719e-07C 8.88826 4.15719e-07 17.7765 4.15719e-07 26.692 4.15719e-07C 26.692 0.790093 26.692 1.60743 26.692 2.42477C 17.8038 2.42477 8.91553 2.42477 1.6641e-06 2.42477Z"/>
<path id="path10_fill" d="M 1.6641e-06 2.42477C 1.6641e-06 1.60743 1.6641e-06 0.817338 1.6641e-06 0C 6.37992 0 12.7326 0 19.1125 0C 19.1125 0.817338 19.1125 1.60743 19.1125 2.42477C 12.7326 2.42477 6.37992 2.42477 1.6641e-06 2.42477Z"/>
<path id="path11_fill" d="M 0 0C 3.84431 0 7.66135 0 11.5057 0C 11.5057 0.817336 11.5057 1.60743 11.5057 2.42477C 7.66135 2.42477 3.84431 2.42477 0 2.42477C 0 1.60743 0 0.817336 0 0Z"/>
<path id="path12_fill" d="M 8.32049e-07 6.42972C 3.48987 1.66192 7.71588 -0.108978 12.3236 0.0817342C 18.9762 0.326935 26.0104 3.16037 32.6357 3.02415C 36.7527 2.96966 40.706 2.15232 44.0869 -4.15719e-07C 41.006 4.33189 37.2434 6.2935 33.1265 6.34799C 26.5285 6.51146 19.4942 3.65077 12.8144 3.40557C 8.20665 3.21486 3.81704 3.86873 8.32049e-07 6.42972Z"/>
<path id="path13_fill" d="M 0.265615 1.32059C -0.279677 0.639476 0.0747632 0.176319 0.783643 0.149074C 4.65521 -0.0961273 8.22688 -0.286839 11.744 1.70202C 14.6886 3.36393 16.1063 6.52431 15.7792 9.76641C 15.1248 14.6159 9.42652 18.5664 5.93665 20.5553C 4.27351 21.5361 3.21019 23.3342 3.15566 25.2686C 3.07387 28.5107 2.99208 33.224 3.0466 35.2673C 3.07387 36.5478 2.09234 37.8556 0.919966 38.4005C 0.538261 38.5639 0.129292 38.6184 0.265615 38.019C 1.43799 31.8073 0.756378 1.94722 0.265615 1.32059ZM 3.5101 18.5937C 4.79154 19.193 13.2163 14.18 13.6525 9.16703C 13.8434 4.45372 7.54526 0.557743 3.29199 2.73731C 3.07387 2.84629 2.88302 2.87353 2.88302 3.2822C 2.93755 5.62523 2.39225 18.076 3.5101 18.5937Z"/>
<path id="path14_fill" d="M 16.2672 23.2321C 16.4853 20.3442 15.0402 18.4643 12.641 17.1566C 11.1959 16.3665 9.80545 15.5492 8.33316 14.868C 5.36132 13.4786 4.27073 10.9993 4.10714 7.89342C 3.94356 5.0055 4.73423 2.60798 7.21531 0.946058C 9.83271 -0.797595 14.3859 -0.0347466 16.349 2.44451C 17.2487 3.58878 16.7307 5.60488 15.422 6.14977C 14.9585 6.34048 14.9585 6.04079 14.8221 5.71386C 13.8679 3.34358 11.9593 2.2538 9.56007 2.7442C 7.70607 3.12562 6.58822 5.08723 6.58822 7.48476C 6.61549 10.8903 8.66033 12.6067 11.4686 13.86C 13.0772 14.5956 14.7131 15.3312 16.2126 16.2575C 18.3393 17.5925 19.1299 19.7721 19.3753 22.1423C 19.8116 26.2835 17.8212 29.3077 14.7131 31.7052C 11.5231 34.13 8.11504 36.3095 4.6797 38.3801C 4.10715 38.7343 3.58912 39.143 3.07109 39.5516C 2.36221 40.0965 1.98051 39.933 1.54427 39.3337C 1.38069 39.1157 1.1353 38.9522 1.02625 38.7343C 0.590012 37.8625 -0.336985 36.9906 0.126514 36.0371C 0.535483 35.247 1.62607 35.7919 2.41674 35.7374C 5.1432 35.5467 7.43343 34.3207 9.58733 32.8222C 12.0411 31.133 14.3314 29.1987 15.6673 26.3925C 16.1854 25.3572 16.1581 24.2947 16.2672 23.2321Z"/>
</defs>
</svg>
